<svg xmlns="http://www.w3.org/2000/svg" version="1.1" width="600px" height="600px" viewBox="0 0 200 200" style="overflow:hidden!important;"><g id="svga-group-wrapper"><g id="svga-group-backs-single"><path id="SvgjsPath13086" d="M0 0h200v200H0V0z" fill="#1a839e" stroke-width="none" opacity="1" stroke="none"></path><path id="SvgjsPath13087" d="M0 70.8 39.2 200l39.2-86.3L0 9.9v60.9zM200 0h-47.6l23 37.5L200 0zm-28.9 104.9 16.5-40.7-70.5-26.8 54 67.5zM51.3 200h101.1v-33.1l-73.9 19.5L51.3 200zm27.2-86.3 73.9 53.2L78.5 0v113.7z" fill="#09738f" stroke-width="none" opacity="1" stroke="none"></path><path id="SvgjsPath13088" d="m134.4 0 2 130.8L176.2 0h-41.8zm18 166.9 47.6-14.5v-21.5L171.1 105l-18.7 61.9zm22.9-129.4 12.3 26.8 12.4 6.9V0l-24.7 37.5zm-58.2 0L96.7 26.6 117.1 0 81 18.3 46.7 0h-28l56.2 21.4L0 59.3v93.1L94.8 29l22.3 8.5zM0 200h94.2l42.2-69.2L0 189.1V200z" fill="#00657f" stroke-width="none" opacity="1" stroke="none"></path><path id="SvgjsPath13089" d="M104.4 70.8 91.1 13.5 166.2 0 90 8.6 88 0H68.2l3.5 10.6L0 18.7v11.1l73.7-13.2 19.5 59-65.3 28L0 70.8v5.4l24 29.2-24 10.2 24.5-9.6 57.4 69.8L51.3 200h27.2l11.1-14.9 12.3 14.9h7.9l-16.7-19.6 24.1-32.4 17.2 52.1-29.2-125.6 94.8-37v-7.6l-95.6 40.9zm12.7 77.1-30.9 24.4-57.7-67.9 65.7-25.7 22.9 69.2zm70.5 52.1H200l-47.6-95.1 35.2 95.1z" fill="#ffffff" stroke-width="none" opacity="1"></path></g><g id="svga-group-humanwrap-move" transform="matrix(1,0,0,1,4,-6)"><g id="svga-group-humanwrap" transform="matrix(0.9999999,0,0,0.9999999,0.00000999999980422217,0.000012165001095354455)"><g id="svga-group-hair-back-move" transform="matrix(1,0,0,1,0,0)"><g id="svga-group-hair-back"><path id="SvgjsPath11282" d="m138.2 58.5 7.6 15.3-1.2 31.3-5.4 31.4-16.7 24.5-79.2 36s-5.7-16.6-5.7-17.5 21.2-55 21.2-55L50.9 73 79 41.9l35.1 4.5 24.1 12.1z" fill="#876243" stroke-width="none" opacity="1" stroke="none"></path></g></g><g id="svga-group-humanbody-back"><path id="SvgjsPath5640" d="m168.2 200-4.6-14.2-34.9-13.4-10.8-9.7-1.4-50.5h-33l-1.4 50.5-10.8 9.7-34.9 13.4-4.6 14.2-3 20h142.4z" fill="#f3d4cf" stroke-width="none" opacity="1" stroke="none"></path><path id="SvgjsPath5641" d="m83.5 112.2-1.4 50.5-10.8 9.7-34.9 13.4-4.6 14.2-3 20H39v-20l1.7-13.3 32.1-12.9 14.1-9.5 2-52.1z" fill="#d4958a" stroke-width="none" opacity="1" stroke="none"></path></g><g id="svga-group-chinshadow-single"><path id="SvgjsPath12630" d="m117.5 150.3-1-38.2h-33l-1.1 42.1c2.9 2 6 3.9 9.3 5.8l5.5 1.1 5.5-1.1c5.6-3.1 10.6-6.5 14.8-9.7z" fill="#c5796d" stroke-width="none" opacity="1"></path></g><g id="svga-group-humanbody-front"></g><g id="svga-group-clothes-single"><path id="SvgjsPath11599" d="m173.6 220-2.4-20-3.3-12.7-3.4-1.5-1.6-2.1-16.4-5.8-.9-2.1-4.8-3.6-2.9-9.9-4.9-5-6.7-4.4-8.7-1 .3 10.8-1 9.6-12 10.4-3.2 4-6.6-4-12-10.4-1-9.6.3-10.8-8.7 1-6.7 4.4-4.9 5-2.9 9.9-4.8 3.6-.9 2.1-16.5 5.8-1.5 2.1-3.4 1.5-3.3 12.7-2.4 20z" fill="#2e2f2f" stroke-width="none" opacity="1" stroke="none"></path><path id="SvgjsPath11600" d="M129.1 168.4c.6-.4.6-6.2.6-6.2l-1.7-7.1s.8 10.4.8 11-13.5 12.3-13.5 12.3l-10 8.3 9.6-5.4s13.7-12.5 14.2-12.9zm13.7 13.3-7.5 3.5-18.1 4.8-7.4 2.8-1.6-1.6.5-2.4-2.3.2s-.3.7-.5 1.3h-.1l-.1-.8-4.2-2.9 3.3 4.1-1.5.6v-.3l-2.4-.4-.7 2.4h.1l-6 5-3.3 9.3 4.7 3.2 3.6-4.9.4-7.2 2.5-4.9-3.8 5-.3 6.5-2.8 3.5-2.6-2.1 2.8-8.5 4.9-4.9 2.1.4-.2 11.1 2.9 11.8 2.3-1.3-4.2-10.9-.4-10.6.1-1.1 1.3-.4.8 2.5-1.6.6 1.7-.4 1.8 5.6 2.1 17.9 3.3-.4-3.9-13.2-.9-5.2-1.8-4.8h.1l.1.4-.1-.4 1.4-.3.8 1.4 1.9 14.1 3.6 1.2 2.1-4.3-3.2-10.7-2.6-2.5 6.6-1.6 17.9-4.4 9.1-4.2 2.5-5.2-.9-2.1-2.3 5.7zm-36 9.5c.6.2 1.3.5 1.3.5l.1-.3 1.3 1.5-1.8.7-1.4-2.2.5-.2zm-.7 3-.9-2.4.2-.1.7 2.5zm.2-.1-.3-2.6.2-.1 1.3 2.3-1.2.4zm5.8 1.8 3.2 10.5-1.8 3.3-2.4-1.1-2-12.8-1.2-1.9 2-.5 2.2 2.5zm18-15.3 10.7-8.3-1.9-5.4s-9.1 11-9.2 11.6c-.2.6-11.9 4.2-11.9 4.2l-9.1 6.2 9.2-4.6 12.2-3.7zm34 7.1-5.8 13.5-1.9 18.5 3.3-18.1 6.2-13.5-1.8-.4zM88 192l-15.9-4.2-10-12.7 1.5-8.2 2.7 5.2 12.5 11.5 14.2 2.2s-11-3.2-11.7-3.2-12-11.2-12-11.2l.2-12 10.5-5.7 1.7-1.7-8 .9-6.7 4.5-5 5-2.9 9.9-4.8 3.6-.9 2.1-16.4 5.7-1.5 2.1-3.4 1.5-3.3 12.7-2.4 20h8.3l1.8-26 2.6-1.2 4.5 6.4s5 20.1 5.2 19.5-4.2-20.1-4.2-20.1l-4.5-6.6 1.4-1.8L57 186l10 4.5 13.9 3 14.9.8L88 192zm-10.7-34.6-1 7.5 6.8 7.4-1-9.6.2-8.9-5 3.6zm44.4 8.7 1.7-9-4.7-4-.5-1.2-.6-.1.3 10.8-1 9.6 4.8-6.1z" fill="#1c2020" stroke-width="none" opacity="1" stroke="none"></path><path id="SvgjsPath11601" d="m146.9 179 15.7 5.4.6 2.7-4.4 10.8 1.6-11.9-14.9-5.4 1.4-1.6zm18 13.2 2.4-3.8 2.4 11.9 1.4 18.5-3.6-18.5-2.6-8.1zM122.4 154l2.8 4-2.4 10-4.8 4.9-13.3 11.9 15-11.4 7.9-7.8-.6-8.6-4.6-3zm-47 4.5-.6 7.9 7.8 9 12.3 8.6 6.5 3.5-8.4-2.7-13-7.6-8.4-10.2 1.9-7.3 1.9-1.2z" fill="#3e3e3e" stroke-width="none" opacity="1" stroke="none"></path></g><g id="svga-group-head" transform="matrix(1,0,0,1,0,0)"><g id="svga-group-ears-left-move" transform="matrix(1,0,0,1,0,0)"><g id="svga-group-ears-left"><path id="SvgjsPath7203" d="M61.9 93s-5.5-3-7.7-3.9c0 0-3.9 5.4-5.1 7.2 0 0 3.1 14.7 3.9 17.3l5 6.5 5.4-1.7 4.2-14.2L61.9 93z" fill="#f3d4cf" stroke-width="none" opacity="1" stroke="none"></path><path id="SvgjsPath7204" d="M59.8 104.7c-.2-.4-6-10-6-10l-2.3 7.9 2.6-2.4 1.6 2.9s-.3 5-.2 5.5c0 .5 2.4 4.3 2.4 4.3l1.9-8.2z" fill="#d4958a" stroke-width="none" opacity="1" stroke="none"></path><path id="SvgjsPath7205" d="m59.4 98-5.2-8.9c2.2.9 7.7 1.8 7.7 1.8l5.7 13.3-4.2 14.2-5.4 1.7 3.6-3.4L59.4 98z" fill="#e4b3ab" stroke-width="none" opacity="1" stroke="none"></path></g></g><g id="svga-group-ears-right-move" transform="matrix(1,0,0,1,0,0)"><g id="svga-group-ears-right"><path id="SvgjsPath7206" d="M138.1 93s5.5-3 7.7-3.9c0 0 3.9 5.4 5.1 7.2 0 0-3.1 14.7-3.9 17.3l-5 6.5-5.4-1.7-4.2-14.2 5.7-11.2z" fill="#f3d4cf" stroke-width="none" opacity="1" stroke="none"></path><path id="SvgjsPath7207" d="M140.2 104.7c.2-.4 6-10 6-10l2.3 7.9-2.6-2.4-1.6 2.9s.3 5 .2 5.5c0 .5-2.4 4.3-2.4 4.3l-1.9-8.2z" fill="#d4958a" stroke-width="none" opacity="1" stroke="none"></path><path id="SvgjsPath7208" d="m140.6 98 5.2-8.9c-2.2.9-7.7 1.8-7.7 1.8l-5.7 13.3 4.2 14.2 5.37 1.68-3.57-3.38 2.2-18.7z" fill="#e4b3ab" stroke-width="none" opacity="1" stroke="none"></path></g></g><g id="svga-group-faceshape-wrap"><g id="svga-group-faceshape-single"><path id="SvgjsPath12620" d="M136.8 61c-6.7-11.2-19-18.9-19-18.9-7-1.5-17.8-2.2-17.8-2.2s-10.8.8-17.8 2.2c0 0-12.4 7.6-19 18.9 0 0-5 14-5.2 23.9 0 0 1.4 33.9 4.4 42.6 0 0 12.2 14.4 32.1 25.5l5.5 1.1 5.5-1.1c19.9-11.1 32.1-25.5 32.1-25.5 3-8.7 4.4-42.6 4.4-42.6-.3-9.8-5.2-23.9-5.2-23.9z" fill="#f3d4cf" stroke-width="none" opacity="1"></path><path id="SvgjsPath12621" d="M83.9 44.1c8.8-3 33.9-2 33.9-2-7-1.5-17.8-2.2-17.8-2.2s-10.8.8-17.8 2.2c0 0-12.4 7.6-19 18.9 0 0-5 14-5.2 23.9 0 0 1.4 33.9 4.4 42.6 0 0 8.6 10.2 23.2 20-8.6-8.6-16.4-24.8-16.4-24.8-2.1-9.7-7.4-39-7.4-39 0-3.5 3.9-20.6 3.9-20.6 2-3.9 18.2-19 18.2-19z" fill="#d4958a" stroke-width="none" opacity="1"></path></g></g><g id="svga-group-mouth-single-move" transform="matrix(1,0,0,1,0,0)"><g id="svga-group-mouth-single"><path id="SvgjsPath6744" d="m86.12 128.47 10.5-2.08 3.9 2.03 3.33-2.19 11.79 2.28-8.05 7.56-6.99 1.62-6.5-1.54z" fill="#e76680" stroke-width="none" opacity="1" transform="translate(0 3)" stroke="none"></path><path id="SvgjsPath6745" d="m84.99 128.26 15.53 3.17 16.59-3.17-16.75 2.36z" fill="#d84a66" stroke-width="none" opacity="1" transform="translate(0 3)" stroke="none"></path></g></g><g id="svga-group-eyes-left-move" transform="matrix(1,0,0,1,0,0)"><g id="svga-group-eyes-left"><g id="svga-group-eyesback-left"><path id="SvgjsPath12560" d="M92 100.8 87.7 97s-12.6-.7-12.9-.7-6.2 4.1-5.9 4.2c.2.2 6.3 2.9 8.7 3.4 0 0 3.7 0 7.5-.8 2.7-.6 5.5-1.7 6.9-2.3z" fill="#ffffff" stroke-width="none" opacity="1"></path></g><g id="svga-group-eyesiriswrapper-left" transform="matrix(1,0,0,1,0,0)"><g id="svga-group-eyesiriscontrol-left" transform="matrix(1,0,0,1,0,0)"><g id="svga-group-eyesiris-left"><path id="SvgjsPath9072" d="m80.1 103.9-2.4-1.7-.9-2.8.9-2.7 2.4-1.8H83l2.3 1.8.9 2.7-.9 2.8-2.3 1.7z" fill="#515f91" stroke-width="none" opacity="1" stroke="none"></path><path id="SvgjsPath9073" d="m82.9 95.2 2.2 1.6.8 2.6-.8 2.6-2.2 1.6h-2.8l-2.2-1.6-.8-2.6.8-2.6 2.2-1.6h2.8m.2-.5H80l-2.5 1.8-.9 2.9.9 2.9 2.5 1.8h3.1l2.5-1.8.9-2.9-.9-2.9-2.5-1.8z" fill="#293972" stroke-width="none" opacity="1" stroke="none"></path><path id="SvgjsPath9074" d="M82.3 97.1h-1.5l-1.3.9-.4 1.4.4 1.5 1.3.9h1.5l1.2-.9.5-1.5-.5-1.4z" fill="#000000" stroke-width="none" opacity="1"></path><path id="SvgjsPath9075" d="m82.8 103.6.1-.7.8.2.1-.8.8.2s-.2-.7-.1-.7.7.1.7.1l-.4-.8.7-.2-.4-.8.8-.3-.6-.4.4-.6-.6-.3.3-.8-.6-.2.2-.7h-.5l-.1-.4h-.3l-.1-.5 1.2.6.7 1.7.4 1.4-.1.5-.7 2.3-1.8 1.4-.8.5-2.1-.2.4-.6.5.3.5-.4.6.2z" fill="#293972" stroke-width="none" opacity="1" stroke="none"></path><path id="SvgjsPath9076" d="m77.8 100.6 1.1-.3v.2l-1.1.3v-.2zm.8-1.6c-.4-.1-.9-.1-1-.1v-.2s.1 0 1 .1v.2zm.5-2.6.1-.1.6.7-.1.1-.6-.7zm2-.6h.2v.8h-.2v-.8zm2.5 1.6.6-.6.1.1-.6.6-.1-.1zm.8 1.5.6-.1v.2h-.6v-.1zm-.2 1.5.1-.1.6.3-.1.1-.6-.3zm-1.3 1.4.1-.1.4.8-.1.1-.4-.8zm-2.9 1.3.4-1.1.2.1-.4 1.1-.2-.1zm-1-1.1.3-.4.1.1-.3.4-.1-.1z" fill="#293972" stroke-width="none" opacity="1" stroke="none"></path><path id="SvgjsPath9077" d="m81.2 97.2-.9-.3-.7.7.2.8.9.3.7-.6z" fill="#ffffff" stroke-width="none" opacity="1"></path><path id="SvgjsPath9078" d="m83.1 101-.5-.3-.6.3v.6l.6.3.5-.3z" fill="#ffffff" stroke-width="none" opacity="1"></path></g></g></g><g id="svga-group-eyesfront-left"><path id="SvgjsPath12568" d="M68 94.5v11.1l7.7 7.9h10.9l7.7-7.9V94.5l-7.7-7.9H75.7L68 94.5zm.9 6.1c-.2-.2 5.7-4.2 5.9-4.2.2 0 12.9.7 12.9.7l4.3 3.8c-1.4.6-4.2 1.7-7 2.3-3.8.8-7.5.8-7.5.8-2.3-.5-8.3-3.3-8.6-3.4z" fill="#f3d4cf" stroke-width="none" opacity="1" stroke="none"></path><path id="SvgjsPath12569" d="m92.3 99.9-3.9-5.3-10.9-.1-2.3 1.3 3.5-.8 9.3.5z" fill="#e4b3ab" stroke-width="none" opacity="1" stroke="none"></path><path id="SvgjsPath12570" d="m67.5 101.7 1.8-.2-3.1-1.2 2.1-.4.5-.3-1.2-.3 1.7-.1 1.2-.8-1.9-.4 2.4.1 1.2-.8-1.3-.4 1.8.1.7-.5-.8-.3h1.3l.3-.1 13.6.5 4.9 4.3-.8-.1-4.3-3.6-12.6-.4-4.6 3.6 7.1 3.6-1.8-.2-.9-.4h-1.9l1.1-.3-1.6-.5-2.5-.1 1.5-.3-1.3-.5z" fill="#000000" stroke-width="none" opacity="1" stroke="none"></path></g></g></g><g id="svga-group-eyes-right-move" transform="matrix(1,0,0,1,0,0)"><g id="svga-group-eyes-right"><g id="svga-group-eyesback-right"><path id="SvgjsPath12561" d="m108 100.8 4.3-3.8s12.6-.7 12.9-.7 6.2 4.1 5.9 4.2c-.2.2-6.3 2.9-8.7 3.4 0 0-3.7 0-7.5-.8-2.7-.6-5.5-1.7-6.9-2.3z" fill="#ffffff" stroke-width="none" opacity="1"></path></g><g id="svga-group-eyesiriswrapper-right" transform="matrix(1,0,0,1,0,0)"><g id="svga-group-eyesiriscontrol-right" transform="matrix(1,0,0,1,0,0)"><g id="svga-group-eyesiris-right"><path id="SvgjsPath9079" d="m117 103.9-2.3-1.7-.9-2.8.9-2.7 2.3-1.8h2.9l2.4 1.8.9 2.7-.9 2.8-2.4 1.7z" fill="#515f91" stroke-width="none" opacity="1" stroke="none"></path><path id="SvgjsPath9080" d="m119.8 95.2 2.2 1.6.8 2.6-.8 2.6-2.2 1.6H117l-2.2-1.6-.8-2.6.8-2.6 2.2-1.6h2.8m.2-.5h-3.1l-2.5 1.8-.9 2.9.9 2.9 2.5 1.8h3.1l2.5-1.8.9-2.9-.9-2.9-2.5-1.8z" fill="#293972" stroke-width="none" opacity="1" stroke="none"></path><path id="SvgjsPath9081" d="M119.2 97.1h-1.5l-1.2.9-.5 1.4.5 1.5 1.2.9h1.5l1.3-.9.4-1.5-.4-1.4z" fill="#000000" stroke-width="none" opacity="1"></path><path id="SvgjsPath9082" d="m119.7 103.6.1-.7.8.2.1-.8.8.2s-.2-.7-.1-.7.7.1.7.1l-.4-.8.7-.2-.4-.9.8-.3-.6-.4.4-.6-.6-.3.3-.8-.6-.2.2-.7h-.5l-.1-.4h-.3l-.1-.5 1.2.6.7 1.7.4 1.4-.1.5-.7 2.3-1.8 1.4-.8.5-2.1-.2.4-.6.5.3.5-.4.6.3z" fill="#293972" stroke-width="none" opacity="1" stroke="none"></path><path id="SvgjsPath9083" d="m114.7 100.6 1.1-.3v.2l-1.1.3v-.2zm.8-1.6c-.4-.1-.9-.1-1-.1v-.2s.1 0 1 .1v.2zm.5-2.6.1-.1.6.7-.1.1-.6-.7zm2-.6h.2v.8h-.2v-.8zm2.5 1.6.6-.6.1.1-.6.6-.1-.1zm.8 1.5.6-.1v.2l-.6.1v-.2zm-.2 1.5.1-.1.6.3-.1.1-.6-.3zm-1.2 1.4.1-.1.4.8-.1.1-.4-.8zm-3 1.3.4-1.1.2.1-.4 1.1-.2-.1zm-1-1.1.3-.4.1.1-.3.4-.1-.1z" fill="#293972" stroke-width="none" opacity="1" stroke="none"></path><path id="SvgjsPath9084" d="m118.1 97.2-.9-.3-.6.7.2.8.8.3.7-.6z" fill="#ffffff" stroke-width="none" opacity="1"></path><path id="SvgjsPath9085" d="m120 101-.5-.3-.5.3v.6l.5.3.5-.3z" fill="#ffffff" stroke-width="none" opacity="1"></path></g></g></g><g id="svga-group-eyesfront-right"><path id="SvgjsPath12571" d="M124.3 86.6h-10.9l-7.7 7.9v11.1l7.7 7.9h10.9l7.7-7.9V94.5l-7.7-7.9zm-1.9 17.3s-3.7 0-7.5-.8c-2.7-.6-5.5-1.7-7-2.3l4.3-3.8s12.6-.7 12.9-.7c.2 0 6.2 4.1 5.9 4.2-.2.2-6.2 3-8.6 3.4z" fill="#f3d4cf" stroke-width="none" opacity="1" stroke="none"></path><path id="SvgjsPath12574" d="m107.7 99.9 3.9-5.3 10.9-.1 2.3 1.3-3.5-.8-9.3.5z" fill="#e4b3ab" stroke-width="none" opacity="1" stroke="none"></path><path id="SvgjsPath12575" d="m132.5 101.7-1.8-.2 3.1-1.2-2.1-.4-.5-.3 1.2-.3-1.7-.1-1.2-.8 1.9-.4-2.4.1-1.2-.8 1.3-.4-1.8.1-.7-.5.8-.3h-1.3l-.3-.1-13.6.5-4.9 4.3.8-.1 4.3-3.6 12.6-.4 4.6 3.6-7.2 3.5 1.9-.1.9-.4h1.9l-1.1-.3 1.6-.5 2.5-.1-1.5-.3 1.3-.5z" fill="#000000" stroke-width="none" opacity="1" stroke="none"></path></g></g></g><g id="svga-group-facehighlight-single"></g><g id="svga-group-eyebrows-left-move" transform="matrix(1,0,0,1,0,0)"><g id="svga-group-eyebrows-left-rotate" transform="matrix(1,1.7453292519943295e-9,-1.7453292519943295e-9,1,1.5158184396568686e-7,-1.3953906830010965e-7)"><g id="svga-group-eyebrows-left"><path id="SvgjsPath9651" d="m92.1 83.5-.9 5.2-2.4 1-14.4-2.3-3.4 1.2-5.2 3.4s3.9-5.7 4.1-6c.1-.3 4.1-4.2 4.1-4.2l9.7 1.7h8.4z" fill="#816248" stroke-width="none" opacity="1" stroke="none"></path><path id="SvgjsPath9652" d="m77.4 87.9-.4-.1-1.2-3-2.1-2.9.2-.2.4.1 2.6 2.6c.1-.1.3 2.1.5 3.5zm3 .5h-.2c.1-1 .1-2.4.1-2.7 0-.2.6-1.5 1.1-2.6l.3.1c-.4 1.6-1 3.9-1.3 5.2zm4.7.7 5.7-5.7h.7c-.9 1.4-2.1 3.4-2.3 3.6-.2.1-1.8 1.2-3.3 2.2l-.8-.1zm0-5.6h.2l-1.6 3.7-1.3 1.6-.4-.2 3.1-5.1zm-16.3 4.1c1.4-.5 2.7-1 2.8-1 .2-.1 1.3.5 2.2 1.1l-.8.2c-.6-.1-1-.2-1.1-.3-.1 0-1.8.3-3.6.7.2-.2.3-.5.5-.7z" fill="#725034" stroke-width="none" opacity="1" stroke="none"></path></g></g></g><g id="svga-group-eyebrows-right-move" transform="matrix(1,0,0,1,0,0)"><g id="svga-group-eyebrows-right-rotate" transform="matrix(1,1.7453292519943295e-9,-1.7453292519943295e-9,1,1.5158184396568686e-7,-2.0952678880803433e-7)"><g id="svga-group-eyebrows-right"><path id="SvgjsPath9653" d="m107.9 83.5.9 5.2 2.4 1 14.4-2.3 3.4 1.2 5.2 3.4s-3.9-5.7-4.1-6-4.1-4.2-4.1-4.2l-9.7 1.7h-8.4z" fill="#816248" stroke-width="none" opacity="1" stroke="none"></path><path id="SvgjsPath9654" d="m122.6 87.9.4-.1 1.2-3 2.1-2.9-.2-.2-.4.1-2.6 2.6c-.1-.1-.3 2.1-.5 3.5zm-3 .5h.2c-.1-1-.1-2.4-.1-2.7 0-.2-.6-1.5-1.1-2.6l-.3.1c.4 1.6 1 3.9 1.3 5.2zm-4.7.7-5.7-5.7h-.7c.9 1.4 2.1 3.4 2.3 3.6.2.1 1.8 1.2 3.3 2.2l.8-.1zm0-5.6h-.2l1.6 3.7 1.3 1.6.4-.1-3.1-5.2zm16.3 4.1c-1.4-.5-2.6-1-2.8-1-.2-.1-1.3.5-2.2 1.1l.8.3c.6-.1 1-.2 1.1-.3.1 0 1.8.3 3.6.7-.2-.3-.3-.6-.5-.8z" fill="#725034" stroke-width="none" opacity="1" stroke="none"></path></g></g></g><g id="svga-group-nose-single-move" transform="matrix(1,0,0,1,0,0)"><g id="svga-group-nose-single"><path id="SvgjsPath11941" d="m105.55 110.57 3.31 6.99-1.46 2.7-2.53-.2.19-.4 2.63-.9-3.21.2-2.53 3.5H98.06l-2.52-3.5-3.21-.2 2.62.9.2.4-2.53.2-1.46-2.7 3.31-6.99-4.09 7.09 1.95 3.5 3.69-.5 1.85 2.5h4.28l1.84-2.5 3.7.5 1.94-3.5z" fill="#d4958a" stroke-width="none" opacity="1" transform="translate(0 2)" stroke="none"></path><path id="SvgjsPath11942" d="m93.56 113.36 2.55 4.19 6.9.11-6.96.45z" fill="#d4958a" stroke-width="none" opacity="1" transform="translate(0 2)" stroke="none"></path><path id="SvgjsPath11943" d="m95.6 111.94 1.93 4.42 5.56.17 1.51-4.81z" fill="#fbe5e2" stroke-width="none" opacity="1" transform="translate(0 2)" stroke="none"></path></g></g><g id="svga-group-hair-front"><path id="SvgjsPath11276" d="m76.3 163.2-4.6 14.9L60 190.5l.5 11.6-5.7 11-2.9-8.6-10.7-10.7.7-16.2L60 150l3.1-8.5 2.5 4.5 1.7-2.4 2.5 2.8z" fill="#876243" stroke-width="none" opacity="1" stroke="none"></path><path id="SvgjsPath11277" d="m120.2 54-21.6 2.3-22.6-1-12.2 13-.3 26.2 6.5 25.2-8.4 29.3-18.7 31.6 1.6 15.2 9 14.2v7.1L48 209l-13.6-10.6-3.5-22.6 7.7-22.3L49 125.4l-8.7-39.7 2.3-10 2.6-19.1 19.7-24.2 25.3-9.1 26.2 5.5 10.2 9.8.9 5.5 12.7 7.6 5.8 22.1-4.3 20.1-3.1.2-3.6-21.2L124.6 62l-4.4-8zm-55.5 93.3-8.5 31-5.9 9 1 12 3.1 5.1.3 8.7 1.5-10.5-2.6-5.1.3-10.5 6.7-7.2 4.1-32.5zm8.7 15.4-9.5 17.7-7.7 9.2 1 9 1 3.3.3-12 11-11.3 3.9-15.9z" fill="#96755a" stroke-width="none" opacity="1" stroke="none"></path><path id="SvgjsPath11278" d="m88.5 32.4-22.2 7.5-13 19.2 1 17.3 14 41.1-.4 9.1 2-7-6.5-25.2.3-26.2L76 55.3l22.6 1 21.6-2.3-7.7-14.6-24-7zm54 53.8-3.4-3.6-1.3-4.7h6.5l-4.1-3.1-6.7-9L120.2 54l4.2 7.9 10.4 10.9 3.6 21.2 3.1-.2-1.8-7.9 2.8.3zm-21.9-33.5 3.5-3.7 3-3.5-2.2 4.7-4.3 2.5zm-75.5 4 .3 26.8 13.4 41-1.8 25-7.8 18.3 9.2-18.1 3.5-27.2-14.4-41.2-2.4-24.6zm-4.9 29 9.2 40.6-15.1 51.5.1 20.6L48 209.1l5.5 8.1-5.7-11.9L37 198v-21l19.7-55-16.5-36.3z" fill="#8e6b4e" stroke-width="none" opacity="1" stroke="none"></path><path id="SvgjsPath11279" d="m86 45.8-15.1 1.9-11.5 17.1 2 18.1 2.2 5.8.2-20.4 12.3-12.9 22.6 1z" fill="#775030" stroke-width="none" opacity="1" stroke="none"></path><path id="SvgjsPath11280" d="m121.1 50-4.9-15.1L88 28.4l-24.3 8.2-16.1 22 2.3 22L65.3 120 60 150l-10.8 17.8-9.9 14.3 2 16.1 7.6 5.6-5.9-7.9-1.3-13.2L52.5 165l9.1-16 6.7-31.5-15.2-38.9-1.6-19.7 17.1-21 20.7-6.6 23.2 8.1z" fill="#9e7f66" stroke-width="none" opacity="1" stroke="none"></path><path id="SvgjsPath11281" d="m124.1 54.3 11.5 9.2 5.9 9.2 3.6 2.3-7.2-15.5z" fill="#a58a74" stroke-width="none" opacity="1" stroke="none"></path></g><g id="svga-group-glasses-single-move" transform="matrix(1,0,0,1,0,0)"><g id="svga-group-glasses-single"></g></g></g></g></g><rect id="svga-credit-rect" width="200" height="15" x="0" y="185" fill="#ecf0f1" opacity="0.5" style="display: none;"></rect><text id="svga-credit-text" font-family="Avenir Next, Roboto, Helvetica, Arial, sans-serif" font-size="10px" text-anchor="start" font-weight="400" size="10px" anchor="start" weight="400" fill="#333333" x="33.402061462402344" y="182.71133995056152" style="display: none;"><tspan id="SvgjsTspan5572" dy="13" x="33.402061462402344">Created on AvatarMaker.com</tspan></text></g><defs id="SvgjsDefs5524"></defs></svg>